<svg width="81" height="24" fill="none" xmlns="http://www.w3.org/2000/svg"><path fill-rule="evenodd" clip-rule="evenodd" d="M.24 6.576h5.784v2.208c.384-1.2 1.176-2.448 3.384-2.448 1.704 0 2.976.744 3.384 2.592.384-1.2 1.368-2.592 3.528-2.592 2.088 0 3.528 1.104 3.528 4.008v7.224h1.344V18h-6.648v-.432h.84v-7.8c0-2.04-.264-2.28-.696-2.28-.864 0-1.752 1.296-1.752 3.312v6.768h.864V18H7.632v-.432h.84v-7.8c0-2.04-.264-2.28-.696-2.28-.888 0-1.752 1.512-1.752 3.456v6.624h.864V18H.24v-.432h1.32V7.008H.24v-.432zm22.488-3.888c0-1.176.648-2.232 2.448-2.232 1.488 0 2.376.744 2.376 2.208 0 1.272-.696 2.256-2.424 2.256-1.944 0-2.4-1.224-2.4-2.232zm-1.272 3.888h5.88v10.992h1.344V18h-7.128v-.432h1.32V7.008h-1.416v-.432zm13.896 10.632c.696 0 1.656-.672 1.656-2.472V9.504c0-1.296-.504-2.472-1.56-2.472-1.176 0-1.416 1.416-1.416 4.752v1.248c0 3.384.288 4.176 1.32 4.176zM37.32 18l-.264-1.68c-.504 1.2-1.44 1.92-3.312 1.92-2.664 0-4.344-1.896-4.344-5.928 0-4.056 1.68-5.976 4.752-5.976 1.488 0 2.352.432 2.784 1.176V.432h-1.464V0h6v17.568h1.176V18H37.32zM52.896 5.328l.672-.408c.072-.384-.072-.744-.576-.744-.312 0-1.032.096-1.032 1.584 0 .384.048.864.168 1.44.936.624 1.824 1.464 1.824 3.048 0 2.736-1.968 4.104-4.896 4.104-.696 0-1.44-.096-1.944-.192-.84.528-1.056.792-1.056 1.008 0 .216.264.336 1.536.336h2.448c2.712 0 5.448.648 5.448 3.912 0 2.664-1.92 4.584-6.768 4.584-4.176 0-5.928-1.008-5.928-2.568 0-1.2 1.008-1.68 1.848-1.92l1.44.648a4.853 4.853 0 00-.192 1.32c0 1.008.504 2.064 3.072 2.064 2.544 0 3.888-1.032 3.888-2.544 0-1.152-.528-1.608-3.048-1.608h-2.328c-2.856 0-3.624-1.176-3.624-2.232 0-1.368.864-2.04 2.736-3.168-1.872-.528-2.784-1.656-2.784-3.648 0-2.256 1.56-4.008 5.184-4.008 1.176 0 1.872.168 2.664.6a5.408 5.408 0 01-.144-1.176c0-1.968 1.368-2.544 2.352-2.544 1.128 0 1.944.624 1.944 1.776 0 1.104-.72 1.584-1.512 1.584-.72 0-1.344-.432-1.392-1.248zm-5.088 4.488v1.296c0 2.256.408 2.76 1.128 2.76.648 0 1.056-.384 1.056-2.88V9.816c0-2.688-.384-3.048-1.032-3.048-.672 0-1.152.432-1.152 3.048zM61.56 12.36h.696v-1.848c0-3.048-.264-3.84-1.224-3.84-.432 0-1.128.192-1.128.96 0 .192.048.432.144.696h.6c.12.312.192.624.192 1.08 0 1.128-.912 1.872-2.112 1.872-1.488 0-2.064-.816-2.064-1.992 0-2.016 1.752-2.952 5.016-2.952 3.768 0 5.04 1.056 5.04 4.536v4.872c0 .984.288 1.248.696 1.248.432 0 .84-.456.96-2.472l.36.024c-.12 2.88-1.008 3.696-3.072 3.696-1.944 0-3.024-.6-3.312-1.776-.384 1.152-1.08 1.776-2.76 1.776-1.68 0-3.552-.504-3.552-2.904 0-2.424 2.088-2.976 5.52-2.976zm-.336 4.92c.456 0 1.032-.768 1.032-2.304v-2.232h-.168c-1.008 0-1.488.72-1.488 2.184v.384c0 1.728.168 1.968.624 1.968zM76.992 7.248c-1.152 0-2.232 1.728-2.232 3.888v6.432h1.704V18h-7.488v-.432h1.32V7.008h-1.32v-.432h5.784V8.88c.432-1.704 1.776-2.544 3.216-2.544 1.416 0 2.544.744 2.544 2.568 0 1.368-.72 2.28-2.016 2.28-1.608 0-2.376-1.008-1.872-2.712h.864c.48-.984 0-1.224-.504-1.224z" fill="#535B6C"/></svg>